<svg width="24" height="19" viewBox="0 0 24 19" fill="none" xmlns="http://www.w3.org/2000/svg">
<path fill-rule="evenodd" clip-rule="evenodd" d="M8.09134 0H14.9276C19.377 0 23.0189 3.64405 23.0189 8.09889V8.44975C23.0189 12.9046 19.3769 16.5486 14.9276 16.5486H8.09134H6.47515C6.30184 16.5486 6.32153 16.5421 6.16795 16.6209L2.93168 18.2859C2.75836 18.3503 2.67433 18.3017 2.68355 18.1243L2.8713 14.6655C2.87525 14.6379 2.88182 14.634 2.86343 14.6182C1.11466 13.1293 0 10.9137 0 8.44975V8.09889C0 3.64405 3.64063 0 8.09134 0Z" fill="#8DCAFC"/>
<path fill-rule="evenodd" clip-rule="evenodd" d="M10.8261 4.49342e-05C13.2077 4.49342e-05 15.3556 1.04345 16.8405 2.69528L17.858 0.553264C16.9482 0.195841 15.9596 0 14.9276 0H10.8261V4.49342e-05Z" fill="#8AC9FE"/>
<path fill-rule="evenodd" clip-rule="evenodd" d="M20.7003 2.43768L18.7612 6.51801C18.8636 7.0292 18.9174 7.55746 18.9174 8.0989V8.44976C18.9174 12.9046 15.2768 16.5487 10.8261 16.5487H14.9276C19.377 16.5487 23.0189 12.9046 23.0189 8.44976V8.0989C23.0189 5.90172 22.1327 3.90028 20.7003 2.43768Z" fill="#64B9FC"/>
<path d="M12.5302 9.87998H4.9798C4.78796 9.87998 4.63245 9.72446 4.63245 9.53262C4.63245 9.34078 4.78796 9.18527 4.9798 9.18527H12.5302C12.7221 9.18527 12.8776 9.34078 12.8776 9.53262C12.8776 9.72446 12.7221 9.87998 12.5302 9.87998Z" fill="#F8F6F6"/>
<path d="M14.1122 12.3623H4.9798C4.78796 12.3623 4.63245 12.2068 4.63245 12.015C4.63245 11.8231 4.78796 11.6676 4.9798 11.6676H14.1122C14.3041 11.6676 14.4596 11.8231 14.4596 12.015C14.4596 12.2068 14.3041 12.3623 14.1122 12.3623Z" fill="#F8F6F6"/>
<path d="M12.5302 7.39765H4.9798C4.78796 7.39765 4.63245 7.24213 4.63245 7.05029C4.63245 6.85846 4.78796 6.70294 4.9798 6.70294H12.5302C12.7221 6.70294 12.8776 6.85846 12.8776 7.05029C12.8776 7.24209 12.7221 7.39765 12.5302 7.39765Z" fill="#F8F6F6"/>
<path d="M9.546 4.91529H4.9798C4.78796 4.91529 4.63245 4.75977 4.63245 4.56793C4.63245 4.37609 4.78796 4.22058 4.9798 4.22058H9.54604C9.73788 4.22058 9.8934 4.37609 9.8934 4.56793C9.8934 4.75977 9.73788 4.91529 9.546 4.91529Z" fill="#F8F6F6"/>
</svg>
