<svg width="114" height="26" viewBox="0 0 114 26" fill="none" xmlns="http://www.w3.org/2000/svg">
<path d="M22.5532 5.05549C22.5388 5.04588 22.5229 5.03468 22.5069 5.02348L16.0794 0.584873C14.8473 -0.147962 13.604 -0.35277 11.3272 0.924104L0.773041 6.83958V6.85559C2.11554 6.18193 8.73183 2.86502 10.6359 1.92575C13.3576 0.584875 16.3386 -0.152719 16.3386 4.87151V17.4721C16.3386 20.5601 16.0746 23.9508 10.6887 24.3812C7.9478 24.6005 3.31718 24.6058 0.773041 24.7179L0.660201 16.2013L0 25.4949H17.9643C20.4252 25.4949 24.0989 23.9107 24.0989 18.9378V8.83487C24.0989 7.18039 23.9421 6.03795 22.5532 5.05549Z" fill="#464B4E"/>
<path d="M9.67736 17.725V7.95169L0.772949 11.8175L3.13191 12.4445L0.798782 13.805L6.35241 11.8095V18.3362L9.67736 17.725Z" fill="#464B4E"/>
<path d="M38.676 19.0561V22.373H26.4922V7.19752H38.3941V10.5145H30.7413V13.0726H37.4836V16.2811H30.7413V19.0561H38.676ZM51.2255 19.4246H44.8084L43.6161 22.373H39.2368L45.9357 7.19752H50.1632L56.8838 22.373H52.4179L51.2255 19.4246ZM49.9681 16.2595L48.017 11.4033L46.0658 16.2595H49.9681ZM58.1008 7.19752H62.3933V18.9694H69.6342V22.373H58.1008V7.19752ZM83.5166 19.0561V22.373H71.3328V7.19752H83.2347V10.5145H75.5819V13.0726H82.3242V16.2811H75.5819V19.0561H83.5166ZM92.5324 18.3407H90.191V22.373H85.8985V7.19752H92.8359C94.209 7.19752 95.4013 7.42876 96.413 7.89126C97.4248 8.33929 98.2052 8.98967 98.7543 9.8424C99.3036 10.6807 99.5781 11.6707 99.5781 12.8125C99.5781 13.9109 99.318 14.872 98.7977 15.6958C98.2919 16.5052 97.562 17.1411 96.6081 17.6036L99.8816 22.373H95.2856L92.5324 18.3407ZM95.2423 12.8125C95.2423 12.1043 95.0184 11.5551 94.5702 11.1648C94.1222 10.7746 93.4575 10.5795 92.5757 10.5795H90.191V15.0238H92.5757C93.4575 15.0238 94.1222 14.8359 94.5702 14.4601C95.0184 14.0699 95.2423 13.5206 95.2423 12.8125ZM107.279 22.6765C106.051 22.6765 104.859 22.5248 103.702 22.2213C102.546 21.9178 101.607 21.5131 100.884 21.0072L102.293 17.8421C102.972 18.29 103.76 18.6515 104.656 18.926C105.552 19.2006 106.434 19.3379 107.301 19.3379C108.949 19.3379 109.773 18.926 109.773 18.1022C109.773 17.6686 109.534 17.3507 109.057 17.1483C108.595 16.9315 107.843 16.7075 106.803 16.4763C105.661 16.2306 104.707 15.9704 103.941 15.6958C103.175 15.4067 102.517 14.9515 101.968 14.33C101.419 13.7085 101.144 12.8703 101.144 11.8152C101.144 10.8902 101.397 10.0592 101.903 9.32209C102.409 8.57055 103.16 7.97798 104.158 7.54439C105.169 7.11081 106.405 6.89401 107.865 6.89401C108.862 6.89401 109.845 7.00964 110.813 7.24088C111.782 7.45767 112.634 7.78286 113.371 8.21645L112.049 11.4033C110.604 10.6229 109.202 10.2326 107.843 10.2326C106.99 10.2326 106.369 10.3627 105.979 10.6229C105.589 10.8686 105.393 11.1937 105.393 11.5984C105.393 12.0031 105.625 12.3066 106.087 12.509C106.55 12.7113 107.294 12.9209 108.32 13.1377C109.476 13.3834 110.43 13.6507 111.182 13.9398C111.948 14.2144 112.605 14.6624 113.155 15.2839C113.718 15.8909 114 16.722 114 17.777C114 18.6876 113.747 19.5114 113.241 20.2485C112.735 20.9856 111.977 21.5782 110.965 22.0262C109.953 22.4598 108.725 22.6765 107.279 22.6765Z" fill="#464B4E"/>
</svg>
