<svg width="183" height="46" viewBox="0 0 183 46" fill="none" xmlns="http://www.w3.org/2000/svg">
<path d="M14.8114 38.0468C14.1867 37.216 13.4916 36.3339 12.7432 35.3935C10.0365 32.0069 7.72967 29.3536 7.47049 25.9773C7.12552 21.5731 11.2843 19.2062 11.2843 19.2062C10.0004 25.7233 12.0567 27.764 13.8039 29.9834C14.7445 31.1781 15.7074 32.3177 16.5965 33.3972C14.6243 36.4883 14.8269 37.7997 14.8114 38.0468ZM39.1395 21.1612L31.0261 7.09892C30.7565 6.6372 30.3943 6.24416 29.967 5.95753C28.9853 1.76614 24.3493 0.082386 24.1056 0C24.3116 0.116713 29.967 5.95755 26.4588 11.026C25.3637 12.6068 24.1194 14.3197 22.6364 16.1803C19.928 19.5649 17.8546 22.2665 17.6949 24.3313C17.4649 27.22 19.6362 28.7734 19.8336 28.9141C19.5109 28.7734 14.003 26.2811 14.8612 20.5965C15.2714 17.9018 18.5377 14.6338 21.5791 10.7703C22.7257 9.31305 24.0009 7.93136 24.3802 5.31388H11.6911C10.4158 5.31388 9.23495 5.99185 8.59474 7.09892L0.481443 21.1612C-0.160481 22.2631 -0.160481 23.6276 0.481443 24.733L8.59474 38.7935C9.23495 39.8988 10.4158 40.5803 11.6911 40.5803H16.8831C16.6445 39.6979 16.5656 38.6973 16.7338 37.5782C17.1423 34.8768 20.4103 31.6123 23.4465 27.747C25.1921 25.5242 27.2466 23.4851 25.9644 16.9681C25.9644 16.9681 30.1197 19.3367 29.7801 23.7443C29.5138 27.1136 27.2123 29.7688 24.5038 33.1534C22.1078 36.1605 20.182 38.6201 19.6911 40.5803C19.0251 43.2199 21.5053 45.7518 21.7027 45.8906H21.7061L21.7078 45.8941H21.7147C21.6426 45.7724 20.0618 43.0193 21.392 40.5803H27.9245C29.2049 40.5803 30.3825 39.8988 31.0261 38.7935L39.1395 24.733C39.7743 23.6276 39.7743 22.2631 39.1395 21.1612Z" fill="#464B4E"/>
<path d="M55.3753 35.6573C53.4288 35.6573 51.5394 35.4168 49.7072 34.9359C47.875 34.455 46.3866 33.8138 45.2415 33.0122L47.4743 27.9968C48.5508 28.7067 49.7987 29.2794 51.2187 29.7144C52.6387 30.1494 54.0355 30.3671 55.4096 30.3671C58.0204 30.3671 59.3257 29.7144 59.3257 28.409C59.3257 27.722 58.9479 27.2182 58.1921 26.8976C57.4592 26.554 56.2684 26.1991 54.6195 25.8327C52.8104 25.4433 51.2989 25.0311 50.0851 24.596C48.8712 24.1379 47.8294 23.4166 46.9591 22.4318C46.0887 21.4471 45.6537 20.1188 45.6537 18.447C45.6537 16.9813 46.0544 15.6645 46.856 14.4965C47.6576 13.3057 48.8484 12.3667 50.4286 11.6797C52.0316 10.9926 53.9896 10.6491 56.3028 10.6491C57.883 10.6491 59.4403 10.8323 60.9746 11.1987C62.5089 11.5423 63.8602 12.0575 65.0282 12.7446L62.9327 17.7943C60.6427 16.5576 58.421 15.9393 56.2684 15.9393C54.9171 15.9393 53.9325 16.1454 53.3142 16.5576C52.6958 16.947 52.3867 17.4622 52.3867 18.1035C52.3867 18.7447 52.753 19.2256 53.4859 19.5463C54.2188 19.8669 55.3981 20.1989 57.0242 20.5425C58.8564 20.9318 60.3678 21.3554 61.5586 21.8135C62.7725 22.2486 63.8143 22.9586 64.6846 23.9433C65.5778 24.9051 66.0244 26.222 66.0244 27.8938C66.0244 29.3365 65.6237 30.6419 64.822 31.8099C64.0204 32.9778 62.8181 33.9169 61.2151 34.6267C59.6121 35.3138 57.6653 35.6573 55.3753 35.6573ZM92.5943 35.1764L92.5256 22.4318L86.3423 32.8061H83.3193L77.1703 22.7753V35.1764H70.8839V11.13H76.4833L84.9338 25.0082L93.1783 11.13H98.7777L98.8464 35.1764H92.5943ZM117.503 35.6573C114.961 35.6573 112.671 35.1192 110.632 34.0428C108.617 32.9663 107.025 31.4779 105.857 29.577C104.713 27.6761 104.14 25.5349 104.14 23.1532C104.14 20.7715 104.713 18.6302 105.857 16.7294C107.025 14.8286 108.617 13.34 110.632 12.2636C112.671 11.1873 114.961 10.6491 117.503 10.6491C120.045 10.6491 122.324 11.1873 124.339 12.2636C126.377 13.34 127.969 14.8286 129.114 16.7294C130.282 18.6302 130.866 20.7715 130.866 23.1532C130.866 25.5349 130.282 27.6761 129.114 29.577C127.969 31.4779 126.377 32.9663 124.339 34.0428C122.324 35.1192 120.045 35.6573 117.503 35.6573ZM117.503 30.0236C118.717 30.0236 119.816 29.7372 120.801 29.1648C121.785 28.5923 122.564 27.7907 123.136 26.7602C123.709 25.7067 123.995 24.5044 123.995 23.1532C123.995 21.802 123.709 20.6112 123.136 19.5806C122.564 18.5272 121.785 17.7141 120.801 17.1416C119.816 16.5691 118.717 16.2828 117.503 16.2828C116.289 16.2828 115.19 16.5691 114.205 17.1416C113.22 17.7141 112.442 18.5272 111.869 19.5806C111.297 20.6112 111.01 21.802 111.01 23.1532C111.01 24.5044 111.297 25.7067 111.869 26.7602C112.442 27.7907 113.22 28.5923 114.205 29.1648C115.19 29.7372 116.289 30.0236 117.503 30.0236ZM145.421 26.451L142.879 29.1648V35.1764H136.146V11.13H142.879V21.1264L152.188 11.13H159.677L149.852 21.7791L160.192 35.1764H152.291L145.421 26.451ZM183 29.9205V35.1764H163.694V11.13H182.553V16.3859H170.427V20.4394H181.111V25.5235H170.427V29.9205H183Z" fill="#464B4E"/>
</svg>
