<svg width="285" height="72" viewBox="0 0 285 72" fill="none" xmlns="http://www.w3.org/2000/svg">
<path d="M23.067 59.2532C22.094 57.9594 21.0114 56.5855 19.846 55.121C15.6306 49.8468 12.038 45.7146 11.6344 40.4565C11.0971 33.5975 17.5739 29.9113 17.5739 29.9113C15.5745 40.0609 18.7768 43.2391 21.4979 46.6955C22.9627 48.556 24.4623 50.3309 25.847 52.012C22.7756 56.8261 23.0911 58.8684 23.067 59.2532ZM60.9549 32.9559L48.3193 11.0557C47.8995 10.3366 47.3354 9.72451 46.6698 9.27812C45.1411 2.75055 37.9211 0.128306 37.5415 0C37.8623 0.181767 46.6698 9.27816 41.2063 17.1716C39.5009 19.6335 37.5629 22.3012 35.2534 25.1988C31.0353 30.47 27.8063 34.6774 27.5577 37.893C27.1995 42.3918 30.5809 44.8111 30.8883 45.0302C30.3858 44.8111 21.808 40.9296 23.1446 32.0765C23.7834 27.8798 28.8702 22.7903 33.6068 16.7733C35.3924 14.5039 37.3785 12.3521 37.9692 8.27572H18.2074C16.2213 8.27572 14.3823 9.33157 13.3852 11.0557L0.749789 32.9559C-0.24993 34.6721 -0.24993 36.7971 0.749789 38.5185L13.3852 60.4161C14.3823 62.1374 16.2213 63.1989 18.2074 63.1989H26.2934C25.9218 61.8246 25.7989 60.2663 26.0608 58.5235C26.697 54.3163 31.7865 49.2322 36.5151 43.2125C39.2336 39.7508 42.4332 36.5752 40.4364 26.4257C40.4364 26.4257 46.9078 30.1145 46.3788 36.9789C45.9641 42.2261 42.3797 46.3613 38.1617 51.6324C34.4301 56.3155 31.4309 60.146 30.6665 63.1989C29.6293 67.3097 33.4919 71.2528 33.7993 71.4689H33.8046L33.8073 71.4745H33.818C33.7057 71.2849 31.2439 66.9973 33.3155 63.1989H43.489C45.483 63.1989 47.317 62.1374 48.3193 60.4161L60.9549 38.5185C61.9436 36.7971 61.9436 34.6721 60.9549 32.9559Z" fill="#464B4E"/>
<path d="M86.2402 55.5318C83.2087 55.5318 80.2663 55.1573 77.4129 54.4084C74.5594 53.6594 72.2414 52.6609 70.458 51.4124L73.9354 43.6016C75.6119 44.7071 77.5554 45.599 79.7668 46.2765C81.9782 46.954 84.1537 47.293 86.2937 47.293C90.3596 47.293 92.3925 46.2765 92.3925 44.2436C92.3925 43.1736 91.8041 42.389 90.6271 41.8896C89.4856 41.3546 87.6311 40.8018 85.0632 40.2312C82.2457 39.6248 79.8918 38.9828 78.0013 38.3052C76.1109 37.5919 74.4884 36.4684 73.133 34.9348C71.7775 33.4011 71.1 31.3325 71.1 28.7289C71.1 26.4463 71.724 24.3955 72.9725 22.5765C74.2209 20.7219 76.0754 19.2596 78.5363 18.1896C81.0328 17.1196 84.0822 16.5847 87.6846 16.5847C90.1456 16.5847 92.571 16.87 94.9605 17.4406C97.35 17.9756 99.4544 18.7781 101.273 19.8481L98.0099 27.7124C94.4435 25.7865 90.9836 24.8235 87.6311 24.8235C85.5267 24.8235 83.9932 25.1445 83.0302 25.7865C82.0673 26.3928 81.5858 27.1953 81.5858 28.1939C81.5858 29.1925 82.1563 29.9415 83.2977 30.4409C84.4392 30.9402 86.2757 31.4573 88.8081 31.9923C91.6615 32.5987 94.0155 33.2585 95.87 33.9718C97.7604 34.6494 99.3829 35.7551 100.738 37.2887C102.129 38.7867 102.825 40.8375 102.825 43.4411C102.825 45.688 102.201 47.721 100.952 49.54C99.7039 51.3589 97.8315 52.8214 95.335 53.9269C92.8385 54.9968 89.8066 55.5318 86.2402 55.5318ZM144.204 54.7828L144.097 34.9348L134.467 51.0914H129.76L120.183 35.4698V54.7828H110.393V17.3336H119.113L132.274 38.9472L145.114 17.3336H153.834L153.941 54.7828H144.204ZM182.996 55.5318C179.037 55.5318 175.471 54.6938 172.296 53.0174C169.158 51.3409 166.679 49.0229 164.86 46.0625C163.077 43.1021 162.185 39.7675 162.185 36.0582C162.185 32.349 163.077 29.0142 164.86 26.054C166.679 23.0937 169.158 20.7754 172.296 19.0991C175.471 17.4228 179.037 16.5847 182.996 16.5847C186.955 16.5847 190.504 17.4228 193.642 19.0991C196.817 20.7754 199.296 23.0937 201.079 26.054C202.898 29.0142 203.807 32.349 203.807 36.0582C203.807 39.7675 202.898 43.1021 201.079 46.0625C199.296 49.0229 196.817 51.3409 193.642 53.0174C190.504 54.6938 186.955 55.5318 182.996 55.5318ZM182.996 46.758C184.887 46.758 186.598 46.312 188.132 45.4205C189.666 44.529 190.878 43.2806 191.77 41.6756C192.662 40.035 193.107 38.1625 193.107 36.0582C193.107 33.9539 192.662 32.0993 191.77 30.4944C190.878 28.8537 189.666 27.5876 188.132 26.6959C186.598 25.8043 184.887 25.3585 182.996 25.3585C181.106 25.3585 179.394 25.8043 177.86 26.6959C176.327 27.5876 175.114 28.8537 174.222 30.4944C173.331 32.0993 172.885 33.9539 172.885 36.0582C172.885 38.1625 173.331 40.035 174.222 41.6756C175.114 43.2806 176.327 44.529 177.86 45.4205C179.394 46.312 181.106 46.758 182.996 46.758ZM226.475 41.1941L222.516 45.4205V54.7828H212.03V17.3336H222.516V32.9018L237.014 17.3336H248.677L233.376 33.9183L249.479 54.7828H237.175L226.475 41.1941ZM285 46.5975V54.7828H254.934V17.3336H284.305V25.519H265.419V31.8318H282.058V39.7497H265.419V46.5975H285Z" fill="#464B4E"/>
</svg>
