<svg width="122" height="26" viewBox="0 0 122 26" fill="none" xmlns="http://www.w3.org/2000/svg">
<path d="M36.3169 12.5499C37.1839 12.8534 37.863 13.3302 38.3544 13.9805C38.8457 14.6163 39.0914 15.3894 39.0914 16.2997C39.0914 17.6292 38.5566 18.655 37.4874 19.3776C36.418 20.1002 34.8718 20.4614 32.8489 20.4614H24.6557V5.28874H32.4154C34.3516 5.28874 35.8255 5.64999 36.8371 6.3725C37.8486 7.08055 38.3544 8.04149 38.3544 9.2553C38.3544 9.97781 38.1737 10.6281 37.8125 11.2061C37.4657 11.7696 36.9672 12.2176 36.3169 12.5499ZM28.904 8.38829V11.3144H31.8519C33.2968 11.3144 34.0194 10.8231 34.0194 9.84053C34.0194 8.87238 33.2968 8.38829 31.8519 8.38829H28.904ZM32.5021 17.3618C34.0048 17.3618 34.7563 16.8488 34.7563 15.8229C34.7563 14.7969 34.0048 14.2839 32.5021 14.2839H28.904V17.3618H32.5021ZM47.9468 16.4298H45.6059V20.4614H41.3142V5.28874H48.2502C49.6231 5.28874 50.8152 5.51994 51.8267 5.98235C52.8381 6.4303 53.6184 7.08055 54.1676 7.93311C54.7167 8.77121 54.9912 9.76106 54.9912 10.9026C54.9912 12.0008 54.7311 12.9618 54.2109 13.7854C53.7051 14.5946 52.9754 15.2304 52.0217 15.6928L55.2947 20.4614H50.6995L47.9468 16.4298ZM50.6562 10.9026C50.6562 10.1946 50.4322 9.64545 49.9843 9.2553C49.5364 8.86515 48.8715 8.67007 47.9901 8.67007H45.6059V13.1135H47.9901C48.8715 13.1135 49.5364 12.9256 49.9843 12.5499C50.4322 12.1598 50.6562 11.6107 50.6562 10.9026ZM67.5245 17.5135H61.1087L59.9165 20.4614H55.5381L62.2358 5.28874H66.4624L73.1817 20.4614H68.7166L67.5245 17.5135ZM66.2673 14.349L64.3166 9.49373L62.3658 14.349H66.2673ZM88.8341 5.28874V20.4614H85.3011L78.6035 12.3765V20.4614H74.3985V5.28874H77.9315L84.6292 13.3736V5.28874H88.8341ZM91.8614 5.28874H99.0359C100.698 5.28874 102.171 5.59943 103.458 6.22078C104.744 6.84212 105.741 7.72359 106.449 8.86515C107.157 10.0067 107.511 11.3433 107.511 12.8751C107.511 14.4068 107.157 15.7434 106.449 16.885C105.741 18.0265 104.744 18.908 103.458 19.5293C102.171 20.1506 100.698 20.4614 99.0359 20.4614H91.8614V5.28874ZM98.8625 17.0367C100.163 17.0367 101.203 16.6682 101.984 15.9313C102.778 15.1943 103.176 14.1756 103.176 12.8751C103.176 11.5745 102.778 10.5558 101.984 9.81885C101.203 9.0819 100.163 8.71342 98.8625 8.71342H96.1531V17.0367H98.8625ZM115.101 20.7648C113.873 20.7648 112.68 20.6131 111.524 20.3096C110.369 20.0062 109.429 19.6016 108.707 19.0958L110.116 15.9313C110.795 16.3792 111.582 16.7405 112.478 17.015C113.374 17.2896 114.255 17.4268 115.122 17.4268C116.77 17.4268 117.593 17.015 117.593 16.1914C117.593 15.7578 117.355 15.44 116.878 15.2376C116.416 15.0209 115.664 14.7969 114.624 14.5657C113.482 14.3201 112.529 14.06 111.763 13.7854C110.997 13.4964 110.34 13.0412 109.79 12.4199C109.241 11.7985 108.967 10.9604 108.967 9.90555C108.967 8.98075 109.22 8.14987 109.725 7.41291C110.231 6.66151 110.983 6.06905 111.98 5.63555C112.991 5.20204 114.227 4.98529 115.686 4.98529C116.683 4.98529 117.666 5.1009 118.634 5.33209C119.602 5.54884 120.455 5.87397 121.192 6.30748L119.869 9.49373C118.424 8.71342 117.023 8.32327 115.664 8.32327C114.812 8.32327 114.19 8.45332 113.8 8.71342C113.41 8.95908 113.215 9.2842 113.215 9.6888C113.215 10.0934 113.446 10.3969 113.909 10.5992C114.371 10.8015 115.115 11.011 116.141 11.2277C117.297 11.4734 118.251 11.7407 119.002 12.0297C119.768 12.3043 120.426 12.7522 120.975 13.3736C121.538 13.9805 121.82 14.8114 121.82 15.8662C121.82 16.7766 121.567 17.6002 121.061 18.3372C120.556 19.0742 119.797 19.6667 118.786 20.1146C117.774 20.5481 116.546 20.7648 115.101 20.7648Z" fill="#464B4E"/>
<path fill-rule="evenodd" clip-rule="evenodd" d="M1.83051 0V3.2236L0 4.32716H0.00413694V25.49H20.7062V4.32716H20.7107L18.8799 3.2236V0H1.83051ZM5.42254 23.8996H8.42183V20.7407H7.79489L8.27981 19.9412L8.42183 19.7065V16.2775H5.42254V21.434L5.5649 21.6686L6.04963 22.4685H5.42254V23.8996ZM1.98994 23.8996H4.98903V22.4685H4.36208L4.84685 21.6686L4.98903 21.434V19.6323H1.98994V23.8996ZM15.7213 23.8996H18.7206V16.0294H15.7213V17.5779L15.8637 17.8128L16.3483 18.6122H15.7213V23.8996ZM12.2886 23.8996H15.2877V18.6122H14.6606L15.1452 17.8128L15.2877 17.5779V13.6996H12.2886V18.8513L12.4306 19.0861L12.9152 19.8862H12.2886V23.8996ZM8.85566 23.8996H11.8548V19.8862H11.2278L11.7126 19.0861L11.8548 18.8513V17.5822H8.85566V19.7065L8.99783 19.9412L9.48261 20.7407H8.85566V23.8996ZM1.31927 4.32716L4.60355 2.34751L2.88001 0.840811H17.8303L16.107 2.34751L19.3913 4.32716H1.31927ZM6.39189 5.59025C7.19378 5.59025 7.48447 6.59995 6.8029 6.99362V8.58793C6.8029 9.5112 7.19966 10.3507 7.83857 10.9599C9.2219 12.2778 11.4885 12.2778 12.8717 10.9599C13.5108 10.3507 13.9073 9.5112 13.9073 8.58793V6.99362C13.2259 6.59995 13.5164 5.59025 14.3185 5.59025C15.1204 5.59025 15.4113 6.59995 14.7295 6.99362V8.58793C14.7295 9.72704 14.2405 10.763 13.4529 11.5133C11.7487 13.1373 8.96183 13.1373 7.25749 11.5133C6.46976 10.763 5.98084 9.72704 5.98084 8.58793V6.99362C5.29916 6.59995 5.58994 5.59025 6.39189 5.59025Z" fill="#464B4E"/>
</svg>
