<svg width="21" height="20" viewBox="0 0 21 20" fill="none" xmlns="http://www.w3.org/2000/svg">
<path d="M20.1308 10.7889C20.3928 11.1375 20.5482 11.5701 20.5482 12.0388C20.5482 12.3936 20.4592 12.7278 20.3018 13.0201C20.1521 13.3002 19.9393 13.5422 19.6834 13.7275C19.9454 14.0757 20.1008 14.5087 20.1008 14.9774C20.1008 15.6712 19.7601 16.2872 19.2368 16.6665C19.4984 17.0146 19.6534 17.4473 19.6534 17.9156C19.6534 19.065 18.7185 19.9999 17.5695 19.9999H11.0075C9.92658 19.9999 8.86573 19.8076 7.85367 19.4283L4.57147 18.1977V9.52265H4.74739C7.21519 6.91542 9.89582 3.95226 10.3014 3.30353V0.884111C10.3014 0.396538 10.6979 0 11.1855 0C13.1965 0 14.8327 1.63577 14.8327 3.64675V4.73795L14.1729 7.01589H18.9112C20.0606 7.01589 20.9956 7.95085 20.9956 9.10028C20.9956 9.79412 20.6544 10.4096 20.1308 10.7889Z" fill="#FFBD86"/>
<path d="M19.2368 16.6665C19.4984 17.0146 19.6534 17.4473 19.6534 17.9156C19.6534 19.065 18.7185 19.9999 17.5695 19.9999H11.0075C9.92658 19.9999 8.86573 19.8076 7.85367 19.4283L4.57147 18.1977V13.0201H20.3018C20.1521 13.3002 19.9393 13.5422 19.6834 13.7275C19.9454 14.0757 20.1008 14.5087 20.1008 14.9774C20.1008 15.6712 19.7601 16.2872 19.2368 16.6665Z" fill="#F6A96C"/>
<path d="M5.80167 6.61032H0V19.5981H5.80167V6.61032Z" fill="#006EFF"/>
<path d="M5.80167 13.0201H0V19.5981H5.80167V13.0201Z" fill="#005FE4"/>
</svg>
