<svg width="33" height="23" viewBox="0 0 33 23" fill="none" xmlns="http://www.w3.org/2000/svg">
<path d="M15.2637 3.06806H27.5697V6.98945H15.2637V3.06806Z" fill="#537983"/>
<path d="M26.1918 3.06806H27.5697V6.98945H26.1918V3.06806Z" fill="#3E5959"/>
<path d="M29.8763 3.89341H12.9569C12.6082 3.89341 12.3257 3.61064 12.3257 3.26216V1.74237C12.3257 1.04492 12.891 0.479622 13.5882 0.479622H29.245C29.9422 0.479622 30.5075 1.04492 30.5075 1.74237V3.26216C30.5075 3.61064 30.225 3.89341 29.8763 3.89341Z" fill="#A3E72D"/>
<path d="M30.5074 1.74237V3.26191C30.5074 3.61089 30.2246 3.89316 29.8761 3.89316H28.2062C28.5547 3.89316 28.8377 3.61089 28.8377 3.26191V1.74237C28.8377 1.04467 28.2719 0.479622 27.575 0.479622H29.2449C29.9423 0.479622 30.5074 1.04467 30.5074 1.74237Z" fill="#98D829"/>
<path d="M30.9998 22.5204H11.8333C11.1361 22.5204 10.5708 21.9551 10.5708 21.2579V10.6461C10.5708 7.9979 12.7176 5.85136 15.3655 5.85136H27.4674C30.1155 5.85136 32.2623 7.9979 32.2623 10.6461V21.2579C32.2623 21.9551 31.697 22.5204 30.9998 22.5204Z" fill="#678D98"/>
<path d="M32.2625 10.6463V21.2576C32.2625 21.9551 31.6969 22.5201 31 22.5201H29.2321C29.9293 22.5201 30.4949 21.9551 30.4949 21.2576V10.6463C30.4949 7.99791 28.3483 5.85161 25.7 5.85161H27.4678C30.1162 5.85161 32.2625 7.99791 32.2625 10.6463Z" fill="#537983"/>
<path d="M23.0874 10.646H10.5708V19.8845H23.0874C23.4361 19.8845 23.7189 19.6017 23.7189 19.2532V11.2773C23.7189 10.9288 23.4361 10.646 23.0874 10.646Z" fill="#A3E72D"/>
<path d="M26.1919 12.5031C26.1919 14.484 24.5861 16.0897 22.6052 16.0897C20.6245 16.0897 19.0186 14.484 19.0186 12.5031C19.0186 10.5224 20.6245 8.91643 22.6052 8.91643C24.5861 8.91643 26.1919 10.5224 26.1919 12.5031Z" fill="#FEF1DA"/>
<path d="M24.0277 12.7177C24.3682 12.3772 24.3682 11.8254 24.0277 11.4849C23.6875 11.1447 23.1354 11.1447 22.7952 11.4849L22.6051 11.675L22.4153 11.4849C22.0748 11.1447 21.523 11.1447 21.1825 11.4849C20.842 11.8254 20.842 12.3772 21.1825 12.7177L22.5069 14.0421C22.5611 14.0963 22.6491 14.0963 22.7033 14.0421L24.0277 12.7177Z" fill="#FF4755"/>
<path d="M7.23076 15.7692L0.479614 22.5204H18.0035L11.2523 15.7692C10.1417 14.6589 8.34113 14.6589 7.23076 15.7692Z" fill="#FDD79B"/>
<path d="M18.0037 22.5204H15.747L8.99583 15.7692C8.73429 15.5077 8.43353 15.3076 8.11328 15.1687C9.15246 14.7211 10.404 14.9207 11.2525 15.7692L18.0037 22.5204Z" fill="#FCCD7F"/>
<path d="M16.1927 17.7632L11.4352 22.5204H23.7836L19.0264 17.7632C18.2438 16.9805 16.975 16.9805 16.1927 17.7632Z" fill="#FDE6BF"/>
<path d="M23.7834 22.5204H21.7383L16.9811 17.7631C16.8604 17.6422 16.728 17.5401 16.5872 17.4569C17.356 16.999 18.365 17.1012 19.0262 17.7631L23.7834 22.5204Z" fill="#FDD79B"/>
<path d="M28.0493 5.40446V4.37303H29.8763C30.4888 4.37303 30.9872 3.87468 30.9872 3.26216V1.74212C30.9872 0.78163 30.2056 0 29.2451 0H25.9802C25.7154 0 25.5006 0.21458 25.5006 0.479619C25.5006 0.744659 25.7154 0.959239 25.9802 0.959239H29.2451C29.6767 0.959239 30.028 1.31046 30.028 1.74212V3.26216C30.028 3.3456 29.96 3.41379 29.8763 3.41379H12.957C12.8733 3.41379 12.8054 3.3456 12.8054 3.26216V1.74212C12.8054 1.31046 13.1566 0.959239 13.5885 0.959239H23.7724C24.0375 0.959239 24.252 0.744659 24.252 0.479619C24.252 0.21458 24.0375 0 23.7724 0H13.5885C12.6278 0 11.8461 0.78163 11.8461 1.74212V3.26216C11.8461 3.87468 12.3445 4.37303 12.957 4.37303H14.7841V5.40446C12.1486 5.69498 10.0913 7.93445 10.0913 10.6461V14.5689C8.98491 14.2782 7.75713 14.5647 6.89157 15.43L5.40275 16.9191C5.2154 17.1064 5.2154 17.4099 5.40275 17.5973C5.5901 17.7846 5.89386 17.7846 6.08096 17.5973L7.57003 16.1085C8.49155 15.1867 9.99136 15.1867 10.9131 16.1085L14.0409 19.2362L11.2366 22.0408H1.63749L4.51995 19.1585C4.7073 18.9712 4.7073 18.6674 4.51995 18.4803C4.3326 18.293 4.02909 18.293 3.84174 18.4803L0.140427 22.1814C0.00328598 22.3185 -0.0376815 22.5249 0.0365096 22.704C0.110701 22.8833 0.285812 23 0.479658 23H30.9999C31.9604 23 32.7421 22.2186 32.7421 21.2579V10.6461C32.7421 7.93445 30.6847 5.69498 28.0493 5.40446ZM12.7332 16.5718H14.6936C14.9584 16.5718 15.1732 16.357 15.1732 16.0922C15.1732 15.8272 14.9584 15.6126 14.6936 15.6126H11.7992C11.7912 15.6126 11.7832 15.6134 11.7752 15.6139L11.5913 15.43C11.4237 15.2624 11.2421 15.1168 11.0505 14.9924V14.3146H16.8801C17.1452 14.3146 17.3598 14.1001 17.3598 13.835C17.3598 13.5702 17.1452 13.3554 16.8801 13.3554H11.0505V11.1257H18.7796C18.624 11.5561 18.5388 12.0197 18.5388 12.5031C18.5388 14.7453 20.3629 16.5694 22.6051 16.5694C22.8207 16.5694 23.0325 16.5521 23.2391 16.5196V19.253C23.2391 19.3367 23.1712 19.4049 23.0875 19.4049H21.3464L19.3654 17.4239C18.3972 16.4557 16.8217 16.4557 15.8535 17.4239L14.7194 18.558L12.7332 16.5718ZM22.6051 15.6101C20.892 15.6101 19.4983 14.2162 19.4983 12.5031C19.4983 10.7899 20.892 9.39604 22.6051 9.39604C24.3182 9.39604 25.7121 10.7899 25.7121 12.5031C25.7121 14.2162 24.3182 15.6101 22.6051 15.6101ZM18.0035 22.0408H12.593L16.5317 18.1024C17.1259 17.5079 18.0929 17.5079 18.6872 18.1024L22.6258 22.0408H18.0035ZM31.7828 21.2579C31.7828 21.6895 31.4316 22.0408 30.9999 22.0408H23.9825L22.3056 20.3641H23.0875C23.7 20.3641 24.1983 19.8657 24.1983 19.2532V16.2439C25.6509 15.6229 26.6714 14.18 26.6714 12.5031C26.6714 10.2611 24.8471 8.43706 22.6051 8.43706C21.2322 8.43706 20.0172 9.12151 19.2805 10.1664H11.0777C11.3173 8.01214 13.1486 6.33098 15.3658 6.33098H17.335C17.5998 6.33098 17.8147 6.11615 17.8147 5.85136C17.8147 5.58632 17.5998 5.37174 17.335 5.37174H15.7433V4.37303H27.09V5.37174H19.5428C19.2777 5.37174 19.0632 5.58632 19.0632 5.85136C19.0632 6.11615 19.2777 6.33098 19.5428 6.33098H27.4677C29.8471 6.33098 31.7828 8.26669 31.7828 10.6461V21.2579Z" fill="black"/>
<path d="M23.4114 10.75C23.1169 10.75 22.8369 10.8436 22.605 11.0168C22.3732 10.8436 22.0932 10.75 21.7987 10.75C21.4377 10.75 21.0985 10.8906 20.8432 11.1459C20.5881 11.401 20.4475 11.7404 20.4475 12.1014C20.4475 12.4621 20.5881 12.8016 20.8432 13.0569L22.1676 14.3811C22.2846 14.498 22.4397 14.5624 22.605 14.5624C22.7704 14.5624 22.9258 14.498 23.0425 14.3813L24.3669 13.0569C24.6222 12.8016 24.7626 12.4621 24.7626 12.1014C24.7626 11.7404 24.6222 11.401 24.3669 11.1459C24.1116 10.8906 23.7724 10.75 23.4114 10.75ZM23.6887 12.3787L22.605 13.4621L21.5217 12.3787C21.4475 12.3045 21.4067 12.2061 21.4067 12.1014C21.4067 11.9965 21.4475 11.8981 21.5214 11.8241C21.5956 11.7502 21.694 11.7092 21.7987 11.7092C21.9036 11.7092 22.002 11.7502 22.076 11.8241L22.2661 12.0142C22.4532 12.2013 22.7569 12.2013 22.9443 12.0142L23.1344 11.8241C23.2083 11.7502 23.3067 11.7092 23.4114 11.7092C23.5161 11.7092 23.6145 11.7502 23.6887 11.8241C23.7626 11.8981 23.8033 11.9965 23.8033 12.1014C23.8033 12.2061 23.7626 12.3045 23.6887 12.3787Z" fill="black"/>
<path d="M21.6061 18.2865H21.6086C21.8734 18.2852 22.0872 18.0694 22.0857 17.8044V17.7986C22.0842 17.5336 21.8659 17.3232 21.6036 17.3245C21.3386 17.3257 21.125 17.5446 21.1265 17.8096C21.1277 18.0736 21.3423 18.2865 21.6061 18.2865Z" fill="black"/>
<path d="M8.63594 17.8011C8.63594 17.5361 8.42111 17.3215 8.15632 17.3215H8.15082C7.88603 17.3215 7.67395 17.5361 7.67395 17.8011C7.67395 18.0659 7.89128 18.2807 8.15632 18.2807C8.42111 18.2807 8.63594 18.0659 8.63594 17.8011Z" fill="black"/>
<path d="M18.3074 20.1672L18.3021 20.167C18.3001 20.167 18.2984 20.167 18.2964 20.167C18.0341 20.167 17.8227 20.3781 17.8195 20.6411C17.8165 20.9059 18.0313 21.1232 18.2964 21.1262H18.3019C18.5641 21.1262 18.7785 20.9151 18.7815 20.6524C18.7845 20.3873 18.5724 20.1702 18.3074 20.1672Z" fill="black"/>
<path d="M10.4023 18.7284C10.4023 18.4636 10.1875 18.2488 9.92267 18.2488H9.91718C9.65239 18.2488 9.44031 18.4636 9.44031 18.7284C9.44031 18.9934 9.65764 19.208 9.92267 19.208C10.1875 19.208 10.4023 18.9934 10.4023 18.7284Z" fill="black"/>
</svg>
