<svg width="24" height="24" viewBox="0 0 24 24" fill="none" xmlns="http://www.w3.org/2000/svg">
<path d="M19.5 24H4.5C2.01453 24 0 21.9855 0 19.5V4.5C0 2.01453 2.01453 0 4.5 0H19.5C21.9855 0 24 2.01453 24 4.5V19.5C24 21.9855 21.9855 24 19.5 24Z" fill="#FFF9DD"/>
<path d="M18.9404 10.2959C18.8489 10.0011 18.5976 9.79269 18.3029 9.76447L14.2745 9.38233L12.6821 5.49382C12.5652 5.20788 12.2975 5.02325 12.0001 5.02325C11.7026 5.02325 11.435 5.20788 11.3181 5.49382L9.72565 9.38233L5.69719 9.76447C5.40165 9.79269 5.15126 10.0011 5.0597 10.2959C4.96815 10.5907 5.05268 10.9138 5.27603 11.1186L8.32144 13.9043L7.42312 18.0303C7.3569 18.3333 7.47018 18.6473 7.71099 18.8292C7.84002 18.9276 7.99269 18.9767 8.1462 18.9767C8.27694 18.9767 8.40873 18.9403 8.52648 18.8665L12.0001 16.6999L15.4728 18.8665C15.7275 19.025 16.0477 19.0114 16.2883 18.8292C16.5291 18.6473 16.6424 18.3333 16.5762 18.0303L15.6778 13.9043L18.7233 11.1177C18.9475 10.9138 19.032 10.5907 18.9404 10.2959Z" fill="#FFD200"/>
</svg>
